<svg width="56" height="55" viewBox="0 0 56 55" fill="none" xmlns="http://www.w3.org/2000/svg">
<path d="M28.0607 4.58337C16.6435 4.58193 6.91092 12.7142 5.08295 23.7828C3.25498 34.8514 9.8714 45.5881 20.7037 49.1311C21.8703 49.3373 22.288 48.6338 22.288 48.0288C22.288 47.4857 22.2693 46.0465 22.2623 44.133C15.7873 45.508 14.42 41.0667 14.42 41.0667C13.9938 39.6847 13.0774 38.4985 11.837 37.7232C9.73702 36.3046 11.998 36.3367 11.998 36.3367C13.4929 36.538 14.8086 37.408 15.561 38.6925C16.1979 39.8298 17.2708 40.6701 18.5414 41.0269C19.812 41.3836 21.1751 41.2272 22.3277 40.5923C22.436 39.4328 22.9613 38.349 23.8093 37.5353C18.6433 36.96 13.2113 34.9984 13.2113 26.2373C13.1827 23.9713 14.0394 21.7807 15.6053 20.1163C14.8968 18.1439 14.9803 15.9804 15.8387 14.0663C15.8387 14.0663 17.7917 13.4498 22.2367 16.4061C26.049 15.3794 30.0724 15.3794 33.8847 16.4061C38.332 13.4475 40.2827 14.0663 40.2827 14.0663C41.1451 15.9795 41.2286 18.1445 40.516 20.1163C42.0876 21.7806 42.9437 23.9769 42.9053 26.2465C42.9053 35.0305 37.4687 36.96 32.284 37.5261C33.4024 38.6491 33.976 40.1898 33.859 41.7565C33.859 44.8136 33.831 47.2794 33.831 48.0288C33.831 48.6407 34.2463 49.3511 35.434 49.1265C46.2618 45.5775 52.8711 34.8402 51.0394 23.7745C49.2077 12.7088 39.4755 4.58081 28.0607 4.58337Z" fill="white"/>
</svg>
