<svg width="50" height="50" viewBox="0 0 50 50" fill="none" xmlns="http://www.w3.org/2000/svg">
<path fill-rule="evenodd" clip-rule="evenodd" d="M12.0344 11.5615C13.3177 12.6042 13.7989 12.5251 16.2094 12.3636L38.9302 10.999C39.4125 10.999 39.0114 10.5188 38.851 10.4386L35.0781 7.71047C34.3552 7.14901 33.3917 6.5063 31.5458 6.66672L9.54582 8.27088C8.74374 8.35005 8.58332 8.75109 8.90311 9.07297L12.0344 11.5615Z" fill="#363636"/>
<path fill-rule="evenodd" clip-rule="evenodd" d="M13.3979 16.8562V40.7624C13.3979 42.0468 14.0396 42.5281 15.4854 42.4489L40.4552 41.0041C41.9011 40.9249 42.0625 40.0406 42.0625 38.9968V15.251C42.0625 14.2093 41.6615 13.6468 40.7771 13.727L14.6834 15.251C13.7198 15.3312 13.3979 15.8135 13.3979 16.8562Z" fill="#363636"/>
<path fill-rule="evenodd" clip-rule="evenodd" d="M12.0344 11.5614C13.3177 12.6041 13.799 12.525 16.2094 12.3635L38.9302 10.9989C39.4125 10.9989 39.0115 10.5187 38.8511 10.4385L35.0782 7.71037C34.3552 7.14891 33.3917 6.50621 31.5459 6.66662L9.54587 8.27079C8.74379 8.34996 8.58337 8.751 8.90317 9.07287L12.0344 11.5614ZM13.398 16.8562V40.7625C13.398 42.0468 14.0396 42.5281 15.4855 42.4489L40.4552 41.0041C41.9011 40.925 42.0625 40.0406 42.0625 38.9968V15.251C42.0625 14.2093 41.6615 13.6468 40.7771 13.727L14.6834 15.251C13.7198 15.3312 13.398 15.8135 13.398 16.8562ZM38.048 18.1385C38.2084 18.8614 38.048 19.5833 37.324 19.6645L36.1209 19.9041V37.5531C35.0761 38.1145 34.1125 38.4354 33.3105 38.4354C32.025 38.4354 31.7032 38.0343 30.7407 36.8312L22.8709 24.477V36.4302L25.3615 36.9916C25.3615 36.9916 25.3615 38.4354 23.3521 38.4354L17.8136 38.7562C17.6532 38.4354 17.8136 37.6333 18.375 37.4729L19.8209 37.0718V21.2687L17.8136 21.1083C17.6521 20.3854 18.0532 19.3437 19.1782 19.2625L25.1198 18.8614L33.3094 31.377V20.3052L31.2209 20.0656C31.0605 19.1822 31.7021 18.5406 32.5052 18.4614L38.048 18.1385ZM7.69692 6.10621L30.5802 4.42079C33.3907 4.18016 34.1136 4.34162 35.8792 5.62391L43.1844 10.7583C44.3896 11.6416 44.7917 11.8822 44.7917 12.8437V41.002C44.7917 42.7666 44.149 43.8104 41.9011 43.9697L15.3261 45.575C13.6386 45.6552 12.8355 45.4145 11.9521 44.2916L6.57296 37.3125C5.60942 36.0281 5.20837 35.0666 5.20837 33.9427V8.91246C5.20837 7.46975 5.85108 6.26558 7.69692 6.10621Z" fill="white"/>
</svg>
