<svg width="61" height="61" viewBox="0 0 61 61" fill="none" xmlns="http://www.w3.org/2000/svg">
<path d="M30.5051 53.4792C24.2526 53.4792 23.5155 53.4462 21.0755 53.3394C19.1727 53.2768 17.2946 52.89 15.5219 52.1957C12.4549 51.0021 10.0298 48.576 8.83736 45.5085C8.16968 43.7295 7.80955 41.8498 7.7724 39.9499C7.63007 37.515 7.63007 36.7169 7.63007 30.5127C7.63007 24.2424 7.66311 23.5104 7.7724 21.0831C7.81037 19.1858 8.17048 17.3088 8.83736 15.5321C10.0285 12.4606 12.4576 10.0324 15.5296 8.84245C17.3053 8.17196 19.1828 7.8109 21.0806 7.77495C23.5079 7.6377 24.3059 7.6377 30.5051 7.6377C36.8084 7.6377 37.5328 7.67074 39.9347 7.77495C41.8373 7.81121 43.7198 8.17223 45.5009 8.84245C48.572 10.0337 51.0007 12.4615 52.1931 15.5321C52.8721 17.3346 53.2341 19.241 53.2631 21.167C53.4055 23.6019 53.4055 24.3974 53.4055 30.5991C53.4055 36.8008 53.3699 37.6141 53.2631 40.0211C53.2253 41.9227 52.8643 43.8041 52.1956 45.5848C51.0002 48.6544 48.5714 51.0813 45.5009 52.2744C43.7224 52.9408 41.8437 53.3009 39.9448 53.3394C37.5175 53.4792 36.722 53.4792 30.5051 53.4792ZM30.4187 11.6612C24.2017 11.6612 23.5562 11.6917 21.1289 11.8009C19.6801 11.8201 18.2453 12.0875 16.8868 12.5914C14.8808 13.359 13.2935 14.9399 12.5177 16.9427C12.0099 18.316 11.7425 19.7665 11.7272 21.2305C11.5925 23.6934 11.5925 24.339 11.5925 30.5127C11.5925 36.6127 11.6154 37.3523 11.7272 39.7999C11.75 41.2492 12.0172 42.6842 12.5177 44.0445C13.2946 46.0461 14.8817 47.6257 16.8868 48.3933C18.2444 48.9006 19.6797 49.168 21.1289 49.1838C23.5892 49.3261 24.2373 49.3261 30.4187 49.3261C36.6534 49.3261 37.2989 49.2956 39.7059 49.1838C41.1557 49.1661 42.5916 48.8987 43.9505 48.3933C45.9443 47.6191 47.5213 46.043 48.2967 44.0496C48.8035 42.6752 49.0709 41.2241 49.0872 39.7593H49.1151C49.2244 37.3294 49.2244 36.6813 49.2244 30.472C49.2244 24.2627 49.1965 23.6095 49.0872 21.1822C49.0644 19.7346 48.7972 18.3013 48.2967 16.9427C47.5231 14.9464 45.9459 13.3674 43.9505 12.5914C42.5918 12.085 41.1558 11.8175 39.7059 11.8009C37.2481 11.6612 36.6051 11.6612 30.4187 11.6612ZM30.5051 42.2527C25.7521 42.2557 21.4654 39.3951 19.6442 35.005C17.8229 30.6148 18.8259 25.5598 22.1853 22.1975C25.5446 18.8352 30.5988 17.8279 34.9905 19.6454C39.3822 21.4628 42.2465 25.747 42.2476 30.5C42.2406 36.9839 36.989 42.2401 30.5051 42.2527ZM30.5051 22.8699C26.2939 22.8699 22.8801 26.2837 22.8801 30.4949C22.8801 34.7061 26.2939 38.1199 30.5051 38.1199C34.7162 38.1199 38.1301 34.7061 38.1301 30.4949C38.1203 26.2878 34.7122 22.8797 30.5051 22.8699ZM42.7051 21.0577C41.1939 21.0521 39.9725 19.8239 39.9753 18.3127C39.9781 16.8015 41.204 15.5779 42.7152 15.5779C44.2265 15.5779 45.4523 16.8015 45.4552 18.3127C45.4558 19.0418 45.1661 19.7412 44.6501 20.2563C44.1341 20.7713 43.4342 21.0597 42.7051 21.0577Z" fill="#E2E2E2"/>
</svg>
