<svg width="58" height="58" viewBox="0 0 58 58" fill="none" xmlns="http://www.w3.org/2000/svg">
<path d="M29.0146 45.9457H28.9662C28.8164 45.9457 13.8258 45.9167 10.0437 44.8896C7.96399 44.3294 6.33981 42.7043 5.78072 40.6242C5.10062 36.7874 4.7722 32.8965 4.79955 29C4.78198 25.0972 5.11929 21.2008 5.8073 17.359C6.38176 15.277 7.9988 13.6444 10.0751 13.05C13.7533 12.0834 28.3306 12.0834 28.9493 12.0834H29.0001C29.1523 12.0834 44.1815 12.1124 47.925 13.1395C50.0003 13.7026 51.6212 15.3244 52.1831 17.4C52.8849 21.2511 53.2143 25.1608 53.1667 29.075C53.1837 32.9731 52.8455 36.8647 52.1566 40.7015C51.5902 42.779 49.965 44.4005 47.8863 44.9621C44.213 45.936 29.6332 45.9457 29.0146 45.9457ZM24.1812 21.7621L24.1691 36.2621L36.7648 29.0121L24.1812 21.7621Z" fill="white"/>
</svg>
