<svg width="53" height="53" viewBox="0 0 53 53" fill="none" xmlns="http://www.w3.org/2000/svg">
<path d="M26.5 48.5833C14.3093 48.5699 4.43007 38.6907 4.41669 26.5V26.0583C4.65945 13.9225 14.6514 4.25757 26.7886 4.41861C38.9258 4.57965 48.6578 14.5063 48.5785 26.6443C48.4992 38.7823 38.6383 48.5809 26.5 48.5833ZM26.5 8.83333C16.743 8.83333 8.83335 16.743 8.83335 26.5C8.83335 36.257 16.743 44.1667 26.5 44.1667C36.2571 44.1667 44.1667 36.257 44.1667 26.5C44.1557 16.7475 36.2525 8.84429 26.5 8.83333ZM26.5 37.5417L23.3863 34.4279L29.0838 28.7083H15.4584V24.2917H29.0838L23.3863 18.5721L26.5 15.4583L37.5417 26.5L26.5 37.5417Z" fill="white"/>
</svg>
