<svg width="48" height="49" viewBox="0 0 48 49" fill="none" xmlns="http://www.w3.org/2000/svg">
<path fill-rule="evenodd" clip-rule="evenodd" d="M24 49C10.7452 49 0 38.031 0 24.5C0 10.969 10.7452 0 24 0C37.2548 0 48 10.969 48 24.5C48 38.031 37.2548 49 24 49ZM25.0378 18.3863C22.8883 19.299 18.5923 21.188 12.1499 24.0533C11.1037 24.478 10.5557 24.8935 10.5058 25.2997C10.4215 25.9863 11.2637 26.2566 12.4106 26.6248C12.5666 26.6749 12.7283 26.7267 12.894 26.7817C14.0223 27.1562 15.5402 27.5942 16.3292 27.6116C17.045 27.6274 17.8439 27.3262 18.7258 26.7079C24.7452 22.56 27.8524 20.4635 28.0475 20.4183C28.1851 20.3864 28.3759 20.3463 28.5051 20.4635C28.6343 20.5808 28.6216 20.8028 28.6079 20.8624C28.5245 21.2255 25.2184 24.3631 23.5076 25.9868C22.9742 26.493 22.5959 26.8521 22.5185 26.9341C22.3453 27.1178 22.1687 27.2915 21.999 27.4585C20.9507 28.4901 20.1646 29.2637 22.0425 30.527C22.945 31.1341 23.6671 31.6361 24.3876 32.137C25.1743 32.6839 25.9591 33.2295 26.9744 33.9089C27.2331 34.082 27.4801 34.2618 27.7208 34.4369C28.6364 35.1033 29.459 35.7019 30.4753 35.6064C31.0658 35.551 31.6758 34.9841 31.9856 33.2935C32.7177 29.2982 34.1567 20.6414 34.4893 17.0741C34.5185 16.7616 34.4818 16.3616 34.4524 16.186C34.4229 16.0105 34.3614 15.7603 34.1379 15.5751C33.8731 15.3558 33.4643 15.3095 33.2815 15.3126C32.4503 15.3278 31.175 15.7804 25.0378 18.3863Z" fill="white"/>
</svg>
